<svg width="24" height="25" viewBox="0 0 24 25" fill="none" xmlns="http://www.w3.org/2000/svg" id="svg248983065_1628">
<g clip-path="url(#svg248983065_1628_clip0_20_430)">
<path d="M3 19.6633C3 20.1938 3.21071 20.7025 3.58579 21.0775C3.96086 21.4526 4.46957 21.6633 5 21.6633C5.53043 21.6633 6.03914 21.4526 6.41421 21.0775C6.78929 20.7025 7 20.1938 7 19.6633C7 19.1329 6.78929 18.6242 6.41421 18.2491C6.03914 17.874 5.53043 17.6633 5 17.6633C4.46957 17.6633 3.96086 17.874 3.58579 18.2491C3.21071 18.6242 3 19.1329 3 19.6633Z" stroke="#020617" stroke-width="1.5" stroke-linecap="round" stroke-linejoin="round"/>
<path d="M19 7.66333C19.5304 7.66333 20.0391 7.45262 20.4142 7.07754C20.7893 6.70247 21 6.19376 21 5.66333C21 5.1329 20.7893 4.62419 20.4142 4.24912C20.0391 3.87404 19.5304 3.66333 19 3.66333C18.4696 3.66333 17.9609 3.87404 17.5858 4.24912C17.2107 4.62419 17 5.1329 17 5.66333C17 6.19376 17.2107 6.70247 17.5858 7.07754C17.9609 7.45262 18.4696 7.66333 19 7.66333Z" stroke="#020617" stroke-width="1.5" stroke-linecap="round" stroke-linejoin="round"/>
<path d="M11 19.6633H16.5C17.4283 19.6633 18.3185 19.2946 18.9749 18.6382C19.6313 17.9818 20 17.0916 20 16.1633C20 15.2351 19.6313 14.3448 18.9749 13.6885C18.3185 13.0321 17.4283 12.6633 16.5 12.6633H8.5C7.57174 12.6633 6.6815 12.2946 6.02513 11.6382C5.36875 10.9818 5 10.0916 5 9.16333C5 8.23507 5.36875 7.34483 6.02513 6.68846C6.6815 6.03208 7.57174 5.66333 8.5 5.66333H13" stroke="#020617" stroke-width="1.5" stroke-linecap="round" stroke-linejoin="round"/>
</g>
<defs>
<clipPath id="svg248983065_1628_clip0_20_430">
<rect width="24" height="24" fill="white" transform="translate(0 0.66333)"/>
</clipPath>
</defs>
</svg>