<svg width="24" height="25" viewBox="0 0 24 25" fill="none" xmlns="http://www.w3.org/2000/svg" id="svg159966220_977">
<g clip-path="url(#svg159966220_977_clip0_20_397)">
<path d="M10 12.6633C10 13.1938 10.2107 13.7025 10.5858 14.0775C10.9609 14.4526 11.4696 14.6633 12 14.6633C12.5304 14.6633 13.0391 14.4526 13.4142 14.0775C13.7893 13.7025 14 13.1938 14 12.6633C14 12.1329 13.7893 11.6242 13.4142 11.2491C13.0391 10.874 12.5304 10.6633 12 10.6633C11.4696 10.6633 10.9609 10.874 10.5858 11.2491C10.2107 11.6242 10 12.1329 10 12.6633Z" stroke="#94A3B8" stroke-width="1.5" stroke-linecap="round" stroke-linejoin="round"></path>
<path d="M21 12.6633C18.6 16.6633 15.6 18.6633 12 18.6633C8.4 18.6633 5.4 16.6633 3 12.6633C5.4 8.66333 8.4 6.66333 12 6.66333C15.6 6.66333 18.6 8.66333 21 12.6633Z" stroke="#94A3B8" stroke-width="1.5" stroke-linecap="round" stroke-linejoin="round"></path>
</g>
<defs>
<clipPath id="svg159966220_977_clip0_20_397">
<rect width="24" height="24" fill="white" transform="translate(0 0.66333)"></rect>
</clipPath>
</defs>
</svg>