<svg xmlns="http://www.w3.org/2000/svg" width="1440" height="820" fill="none"><g clip-path="url(#a)"><path fill="#020617" d="M0 0h1440v820H0z"/><path stroke="url(#b)" d="M2683.65 1140.71c22.73-314.793-512.88-609.988-1196.32-659.337C803.891 432.024 231.428 647.208 208.698 962c-22.731 314.79 512.88 609.99 1196.322 659.34 683.44 49.35 1255.9-165.84 1278.63-480.63z"/><path stroke="url(#c)" d="M2638.16 1074.99c8.92-307.773-525.63-572.97-1193.94-592.339C775.899 463.283 226.89 697.078 217.971 1004.85c-8.919 307.77 525.628 572.96 1193.949 592.33 668.31 19.37 1217.32-214.42 1226.24-522.19z"/><path stroke="url(#d)" d="M1419.29 1573.35c653.09-10.6 1178.56-263.03 1173.67-563.82-4.88-300.79-538.27-536.033-1191.35-525.432C748.525 494.7 223.053 747.131 227.936 1047.92c4.883 300.79 538.27 536.03 1191.354 525.43z"/><path stroke="url(#e)" d="M1426.35 1549.31c637.92-40.58 1139.91-311.65 1121.22-605.46-18.69-293.806-550.98-499.085-1188.91-458.503C720.741 525.929 218.754 797.004 237.445 1090.81c18.69 293.81 550.981 499.08 1188.905 458.5z"/><path stroke="url(#f)" d="M1433.27 1525.36c622.83-70.52 1101.42-360.17 1068.95-646.954-32.47-286.782-563.71-462.095-1186.54-391.572C692.841 557.357 214.256 847.01 246.728 1133.79c32.472 286.78 563.704 462.1 1186.542 391.57z"/><path stroke="url(#g)" d="M1440.05 1501.61c607.64-100.48 1062.71-408.81 1016.43-688.665-46.28-279.855-576.38-425.263-1184.02-324.779C664.824 588.651 209.754 896.977 256.034 1176.83c46.279 279.86 576.382 425.27 1184.016 324.78z"/><path stroke="url(#h)" d="M1447.19 1477.55c592.51-130.49 1024.12-457.42 964.04-730.227-60.08-272.802-589.1-388.171-1181.61-257.683-592.506 130.488-1024.124 457.419-964.044 730.22 60.079 272.8 589.105 388.17 1181.614 257.69z"/><path stroke="url(#i)" d="M1454.14 1453.7c577.3-160.42 985.4-506 911.52-771.868-73.89-265.867-601.77-351.346-1179.07-190.921-577.302 160.425-985.404 506.004-911.522 771.869 73.881 265.87 601.769 351.35 1179.072 190.92z"/><path stroke="url(#j)" d="M1461.28 1429.49c562.09-190.47 946.65-554.701 858.94-813.523-87.71-258.823-614.47-314.23-1176.56-123.755-562.081 190.474-946.642 554.698-858.934 813.528 87.707 258.82 614.469 314.22 1176.554 123.75z"/><path stroke="url(#k)" d="M1468.35 1405.61c546.97-220.43 908.09-603.294 806.59-855.145s-627.18-277.319-1174.15-56.884C553.819 714.015 192.694 1096.88 294.193 1348.73c101.499 251.85 627.186 277.32 1174.157 56.88z"/><path stroke="url(#l)" d="M1475.35 1381.87c531.81-250.36 869.45-651.872 754.14-896.796-115.3-244.924-639.89-240.516-1171.69 9.845C525.995 745.28 188.356 1146.79 303.66 1391.71c115.305 244.93 639.89 240.52 1171.69-9.84z"/><path stroke="url(#m)" d="M1482.48 1357.74c516.61-280.37 830.72-700.543 701.59-938.469-129.13-237.925-652.6-203.51-1169.21 76.869-516.608 280.378-830.721 700.55-701.592 938.47 129.129 237.93 652.603 203.51 1169.212-76.87z"/><path stroke="url(#n)" d="M1489.4 1333.83c501.46-310.32 792.15-749.06 649.27-979.96-142.89-230.9-665.24-166.519-1166.706 143.799-501.468 310.317-792.157 749.061-649.271 979.961 142.885 230.9 665.236 166.52 1166.707-143.8z"/><path stroke="url(#o)" d="M1496.55 1309.66c486.29-340.376 753.47-797.799 596.76-1021.684-156.71-223.884-677.96-129.45-1164.246 210.925C442.777 839.277 175.6 1296.7 332.307 1520.58c156.708 223.89 677.953 129.45 1164.243-210.92z"/><path stroke="url(#p)" d="M1503.39 1285.54c471.13-370.349 714.81-846.438 544.28-1063.379-170.53-216.94-690.7-92.581-1161.833 277.765C414.705 870.271 171.019 1346.36 341.551 1563.3c170.531 216.94 690.699 92.58 1161.839-277.76z"/><path stroke="url(#q)" d="M1510.21 1261.75c456-400.332 676.27-895.038 491.98-1104.96-184.29-209.923-703.36-55.568-1159.362 344.76-456.005 400.328-676.272 895.03-491.981 1104.96 184.292 209.92 703.353 55.56 1159.363-344.76z"/><path stroke="url(#r)" d="M1517.25 1237.71c440.77-430.29 637.52-943.598 439.44-1146.508-198.08-202.91-715.98-18.585-1156.757 411.702C359.155 933.191 162.411 1446.5 360.491 1649.41c198.081 202.91 715.979 18.58 1156.759-411.7z"/><path stroke="url(#s)" d="M1524.31 1213.77c425.63-460.283 598.89-992.26 386.98-1188.209-211.9-195.948-728.72 18.333-1154.342 478.611C331.322 964.45 158.065 1496.43 369.967 1692.38c211.902 195.95 728.723-18.34 1154.343-478.61z"/><path stroke="url(#t)" d="M1531.23 1189.76C1941.71 699.519 2091.55 148.937 1865.9-40.004c-225.65-188.942-741.34 55.306-1151.823 545.542C303.594 995.774 153.758 1546.36 379.409 1735.3c225.651 188.94 741.341-55.31 1151.821-545.54z"/><path stroke="url(#u)" d="M1538.25 1165.65c395.29-520.207 521.62-1089.42 282.17-1271.369-239.45-181.95-754.01 92.263-1149.298 612.472C275.832 1026.96 149.499 1596.18 388.949 1778.13c239.449 181.95 754.011-92.27 1149.301-612.48z"/><path stroke="url(#v)" d="M1545.27 1141.67C1925.36 591.515 2028.2 3.69 1774.95-171.273 1521.71-346.236 1008.28-42.081 628.189 508.076 248.094 1058.23 145.261 1646.06 398.506 1821.02c253.245 174.97 766.664-129.19 1146.764-679.35z"/><path stroke="url(#w)" d="M1552.34 1118.11C1917.37 537.999 1996.8-68.496 1729.75-236.536 1462.7-404.576 950.297-70.527 585.265 509.583 220.233 1089.69 140.802 1696.19 407.852 1864.23c267.049 168.04 779.448-166.01 1144.488-746.12z"/></g><defs><linearGradient id="b" x1="1446.17" x2="1446.17" y1="-280" y2="1907.69" gradientUnits="userSpaceOnUse"><stop offset=".118" stop-color="#10B981"/><stop offset=".303" stop-color="#3B82F6"/><stop offset=".488" stop-color="#F97316"/></linearGradient><linearGradient id="c" x1="1446.17" x2="1446.17" y1="-280" y2="1907.69" gradientUnits="userSpaceOnUse"><stop offset=".118" stop-color="#10B981"/><stop offset=".303" stop-color="#3B82F6"/><stop offset=".488" stop-color="#F97316"/></linearGradient><linearGradient id="d" x1="1446.17" x2="1446.17" y1="-280" y2="1907.69" gradientUnits="userSpaceOnUse"><stop offset=".118" stop-color="#10B981"/><stop offset=".303" stop-color="#3B82F6"/><stop offset=".488" stop-color="#F97316"/></linearGradient><linearGradient id="e" x1="1446.17" x2="1446.17" y1="-280" y2="1907.69" gradientUnits="userSpaceOnUse"><stop offset=".118" stop-color="#10B981"/><stop offset=".303" stop-color="#3B82F6"/><stop offset=".488" stop-color="#F97316"/></linearGradient><linearGradient id="f" x1="1446.17" x2="1446.17" y1="-280" y2="1907.69" gradientUnits="userSpaceOnUse"><stop offset=".118" stop-color="#10B981"/><stop offset=".303" stop-color="#3B82F6"/><stop offset=".488" stop-color="#F97316"/></linearGradient><linearGradient id="g" x1="1446.17" x2="1446.17" y1="-280" y2="1907.69" gradientUnits="userSpaceOnUse"><stop offset=".118" stop-color="#10B981"/><stop offset=".303" stop-color="#3B82F6"/><stop offset=".488" stop-color="#F97316"/></linearGradient><linearGradient id="h" x1="1446.17" x2="1446.17" y1="-280" y2="1907.69" gradientUnits="userSpaceOnUse"><stop offset=".118" stop-color="#10B981"/><stop offset=".303" stop-color="#3B82F6"/><stop offset=".488" stop-color="#F97316"/></linearGradient><linearGradient id="i" x1="1446.17" x2="1446.17" y1="-280" y2="1907.69" gradientUnits="userSpaceOnUse"><stop offset=".118" stop-color="#10B981"/><stop offset=".303" stop-color="#3B82F6"/><stop offset=".488" stop-color="#F97316"/></linearGradient><linearGradient id="j" x1="1446.17" x2="1446.17" y1="-280" y2="1907.69" gradientUnits="userSpaceOnUse"><stop offset=".118" stop-color="#10B981"/><stop offset=".303" stop-color="#3B82F6"/><stop offset=".488" stop-color="#F97316"/></linearGradient><linearGradient id="k" x1="1446.17" x2="1446.17" y1="-280" y2="1907.69" gradientUnits="userSpaceOnUse"><stop offset=".118" stop-color="#10B981"/><stop offset=".303" stop-color="#3B82F6"/><stop offset=".488" stop-color="#F97316"/></linearGradient><linearGradient id="l" x1="1446.17" x2="1446.17" y1="-280" y2="1907.69" gradientUnits="userSpaceOnUse"><stop offset=".118" stop-color="#10B981"/><stop offset=".303" stop-color="#3B82F6"/><stop offset=".488" stop-color="#F97316"/></linearGradient><linearGradient id="m" x1="1446.17" x2="1446.17" y1="-280" y2="1907.69" gradientUnits="userSpaceOnUse"><stop offset=".118" stop-color="#10B981"/><stop offset=".303" stop-color="#3B82F6"/><stop offset=".488" stop-color="#F97316"/></linearGradient><linearGradient id="n" x1="1446.17" x2="1446.17" y1="-280" y2="1907.69" gradientUnits="userSpaceOnUse"><stop offset=".118" stop-color="#10B981"/><stop offset=".303" stop-color="#3B82F6"/><stop offset=".488" stop-color="#F97316"/></linearGradient><linearGradient id="o" x1="1446.17" x2="1446.17" y1="-280" y2="1907.69" gradientUnits="userSpaceOnUse"><stop offset=".118" stop-color="#10B981"/><stop offset=".303" stop-color="#3B82F6"/><stop offset=".488" stop-color="#F97316"/></linearGradient><linearGradient id="p" x1="1446.17" x2="1446.17" y1="-280" y2="1907.69" gradientUnits="userSpaceOnUse"><stop offset=".118" stop-color="#10B981"/><stop offset=".303" stop-color="#3B82F6"/><stop offset=".488" stop-color="#F97316"/></linearGradient><linearGradient id="q" x1="1446.17" x2="1446.17" y1="-280" y2="1907.69" gradientUnits="userSpaceOnUse"><stop offset=".118" stop-color="#10B981"/><stop offset=".303" stop-color="#3B82F6"/><stop offset=".488" stop-color="#F97316"/></linearGradient><linearGradient id="r" x1="1446.17" x2="1446.17" y1="-280" y2="1907.69" gradientUnits="userSpaceOnUse"><stop offset=".118" stop-color="#10B981"/><stop offset=".303" stop-color="#3B82F6"/><stop offset=".488" stop-color="#F97316"/></linearGradient><linearGradient id="s" x1="1446.17" x2="1446.17" y1="-280" y2="1907.69" gradientUnits="userSpaceOnUse"><stop offset=".118" stop-color="#10B981"/><stop offset=".303" stop-color="#3B82F6"/><stop offset=".488" stop-color="#F97316"/></linearGradient><linearGradient id="t" x1="1446.17" x2="1446.17" y1="-280" y2="1907.69" gradientUnits="userSpaceOnUse"><stop offset=".118" stop-color="#10B981"/><stop offset=".303" stop-color="#3B82F6"/><stop offset=".488" stop-color="#F97316"/></linearGradient><linearGradient id="u" x1="1446.17" x2="1446.17" y1="-280" y2="1907.69" gradientUnits="userSpaceOnUse"><stop offset=".118" stop-color="#10B981"/><stop offset=".303" stop-color="#3B82F6"/><stop offset=".488" stop-color="#F97316"/></linearGradient><linearGradient id="v" x1="1446.17" x2="1446.17" y1="-280" y2="1907.69" gradientUnits="userSpaceOnUse"><stop offset=".118" stop-color="#10B981"/><stop offset=".303" stop-color="#3B82F6"/><stop offset=".488" stop-color="#F97316"/></linearGradient><linearGradient id="w" x1="1446.17" x2="1446.17" y1="-280" y2="1907.69" gradientUnits="userSpaceOnUse"><stop offset=".118" stop-color="#10B981"/><stop offset=".303" stop-color="#3B82F6"/><stop offset=".488" stop-color="#F97316"/></linearGradient><clipPath id="a"><path fill="#fff" d="M0 0h1440v820H0z"/></clipPath></defs></svg>