<svg xmlns="http://www.w3.org/2000/svg" width="1440" height="1020" fill="none"><path fill="#020617" d="M0 0h1440v1020H0z"/><path stroke="url(#a)" d="M720.213 244.25c23.477-4.004 43.738-7.173 53.957-5.589l1.85.397a570.68 570.68 0 0 1 9.91 2.332v-.044c-9.558-1.54-20.79-2.288-59.683 2.156-1.982.22-4.008.484-6.034.748zm0 0c108.794 25.172 176.185 50.432 200.323 75.12 3.655 4.136 8.236 9.241 12.333 13.994.44.484.881 1.012 1.277 1.496.352.44.661.836 1.013 1.232.573.66 1.013 1.276 1.542 1.893v-.044c-19.513-21.08-51.446-44.271-216.488-93.691zm.044.044c26.384-9.417 26.472-9.461 27.045-9.593h.132c2.951.352 6.739.792 9.822 1.188h.044c.264 0 .529.088.793.088-4.096.088-7.136.176-37.836 8.317zm0 0c56.027 24.556 114.388 43.699 168.741 72.127 32.903 17.251 55.895 31.949 68.625 51.664.704 1.188 1.409 2.42 2.114 3.609l3.788 6.601 5.594 11.089 1.189 2.509h.044c-18.676-32.125-51.975-53.556-159.844-103.064-40.655-18.659-72.764-33.445-90.251-44.535zm0 0c77.786 8.67 130.465 21.476 156.629 37.978.793.528 1.541 1.056 2.334 1.584 3.744 2.817 8.149 6.073 12.201 9.154h.044c1.145.924 2.246 1.848 3.436 2.816-39.686-28.164-126.237-44.359-174.644-51.532zm0 0c18.059-1.452 19.557-1.584 30.744-2.112 7.268 0 14.448.352 21.495 1.012-.617-.044-1.277-.132-1.894-.176 13.831.528 25.767 1.012 35.898 4.269h.088c4.316 1.54 10.042 3.476 14.271 5.149.22.088.528.22.749.308-8.457-2.729-9.823-3.169-20.922-5.017a208.209 208.209 0 0 0-19.072-3.477h.044c-19.645-.924-32.683-1.144-61.401.044zm-.044 0c4.082-3.638 6.431-6.571 7.047-8.801-1.453-1.936-1.541-2.024-4.801-2.156 1.718 0 3.744.088 5.374.088.176 0 1.938.044 4.801.176h.088c.441.132.969.352 1.366.484h.044c-.485 1.584-.881 2.992-13.919 10.209zm0 0c-1.145-5.06-1.453-6.425-7.752-8.801v-.044c-4.977-1.848-13.963-1.276-18.279-.968l2.819-.264c2.951-.176 6.871-.44 9.822-.616 8.457.176 18.015.396 13.39 10.693zm0 0c-5.329-3.212-19.512-11.573-53.384-5.765.573-.132 1.145-.22 1.718-.352 25.37-4.224 42.064-4.444 51.666 6.117zm0 0c-94.479-25.171-315.019 81.677-201.336 288.244 50.345 91.534 136.676 156.092 222.478 212.244 33.343 21.828 39.554 26.184 42.681 32.257-.925 1.056-1.894 3.037-3.259 3.477a1.29 1.29 0 0 1-.397.088c-3.788.792-8.589 1.804-12.377 2.508-.132.044-.44.088-.44.088-.94-3.785-9.411-10.518-25.415-20.199-69.329-41.982-253.53-153.451-267.801-315.924-6.035-68.914 37.703-129.996 93.07-168.061 5.417-3.477 11.452-7.217 16.385-10.078 4.14-2.464 9.866-5.457 14.271-7.525 4.272-1.98 9.998-4.665 14.359-6.513 3.656-1.54 8.545-3.389 12.245-4.797 5.99-2.244 14.227-4.797 20.437-6.513 3.039-.836 7.048-1.936 10.087-2.596.396-.132.881-.22 1.321-.308-.132.044-.484.132-.484.132 23.564-4.401 45.852-3.609 64.175 3.476zm0 0c-117.692-14.478-296.828 90.83-128.967 303.646 56.863 72.083 123.902 121.371 177.726 160.977 48.672 35.821 69.065 50.783 45.676 61.653a300.182 300.182 0 0 1-5.77 2.024c-2.863.925-5.77 1.893-8.28 2.685a2.507 2.507 0 0 1-.529.176c16.517-8.141 4.052-16.943-48.143-53.776-453.148-319.929-165.437-506.341-31.713-477.385zm0 0c-120.819-2.772-247.452 96.507-58.67 296.165 58.626 62.05 134.694 104.164 191.954 167.798 13.655 15.182 23.08 31.156-.484 44.931-4.845 2.508-11.144 5.808-16.209 8.229-.221.088-.485.176-.705.308 30.216-17.383 7.4-34.853-53.472-81.501-405.402-310.599-185.523-447.151-62.414-435.93zm0 0s-1.277.088-3.083.264m3.083-.264c-1.013.088-2.026.176-3.083.264m3.083-.264c-34.268 6.249-190.412 48.936 104.258 277.726 112.978 87.662 139.142 125.419 111.745 161.285-.132.132-.22.22-.308.352-4.625 5.325-10.527 12.322-15.46 17.603-.221.22-.397.44-.617.66 31.317-38.418-4.801-73.799-100.998-151.163-333.122-267.869-123.594-303.294-98.62-306.463zm0 0c-54.573 19.187-77.874 72.435 121.215 217.085 61.137 44.447 153.237 111.425 128.924 167.094l-2.202 4.532-6.211 11.97c-.528.924-1.013 1.804-1.586 2.772l-.748 1.321a199.116 199.116 0 0 1-2.423 4.092c20.394-41.542-9.558-83.084-118.44-164.321-246.88-184.256-165.13-232.399-118.529-244.545zm-21.23 2.905c-76.509 15.226-182.264 88.145 52.415 294.668 161.914 142.45 175.436 154.376 151.343 176.379-2.687 2.289-5.418 4.665-8.105 6.865-5.241 4.049-11.98 9.286-17.266 13.026 30.965-25.084 10.307-50.035-47.702-96.462-393.465-315-200.058-381.538-130.685-394.476zm0 0c6.298-1.232 12.421-2.113 18.147-2.641m-18.147 2.641c8.148-1.496 14.579-2.289 18.147-2.641m3.083-.22c-51.314 37.582 64.836 117.014 127.25 159.657 94.435 64.557 151.915 106.98 143.767 162.604-1.542 6.249-3.436 14.082-5.33 21.035-.528 1.849-1.101 3.741-1.673 5.633 11.848-55.844-45.104-100.599-140.156-167.489v.044c-50.521-35.558-204.33-143.814-123.858-181.484zm0 0c13.434 14.831 35.149 28.385 101.13 63.062 93.29 49.023 147.071 78.948 163.104 120.622.44 1.584.925 3.125 1.365 4.709 2.026 7.613 4.405 16.59 5.902 23.675-11.804-41.014-48.935-68.166-147.599-124.142v.044c-67.479-38.286-116.238-65.922-123.902-87.97zm56.071-.792c1.277.132 2.555.308 3.832.44-1.277-.176-2.555-.308-3.832-.44zm80.164 25.876-7.003-3.784c-.22-.088-.397-.22-.617-.308a50.201 50.201 0 0 0-2.202-1.101c.484.22.969.44 1.453.704-1.101-.572-2.202-1.144-3.347-1.76l-4.933-2.244c.44.22.881.44 1.277.616a218.885 218.885 0 0 0-18.455-7.525c-26.913-6.337-54.706-8.978-102.496-9.77 88.577 4.357 119.013 16.987 129.232 21.344 2.378 1.232 4.713 2.464 7.047 3.784l.044.044zm-230.23 501.676c.661.22 1.366.484 2.07.704 4.934 1.673 11.012 3.565 15.725 5.017 4.845 1.408 11.408 2.949 16.297 4.093-63.955-15.623-118.484-50.608-162.134-104.032l12.289 15.138a498.815 498.815 0 0 1 4.14 4.665c4.537 4.709 9.91 10.209 15.416 15.446 3.392 3.081 7.62 6.821 13.434 11.97 2.995 2.42 6.519 5.105 10.131 7.745 31.009 22.84 52.195 31.245 72.632 39.254zM461.661 611.794c50.83 119.874 178.079 165.773 223.051 173.342.22 0 .44.044.66.088 2.379.308 5.374.616 7.62.836l4.713.397h.265c-26.516-2.465-208.956-56.197-249.963-221.662.44 2.464.881 4.841 1.321 7.085 3.04 11.53 7.708 26.624 11.673 38.11.22.616.44 1.144.66 1.76v.044zm252.297 175.499c1.058 0 2.115.044 3.172.044h7.62c-21.01-.352-322.243-114.418-273.572-346.113v.044c-1.673 6.513-3.303 15.315-4.713 21.916-1.365 8.405-2.466 19.759-3.391 28.252-4.977 207.843 243.312 293.216 270.884 295.901v-.044zM478.223 374.246c-122.361 235.656 220.363 402.089 261.37 412.431.265 0 .573 0 .837-.044l1.806-.132c.264 0 .573-.044.881-.088 2.114-.176 4.581-.441 6.695-.661.264 0 .529-.044.793-.088C702.066 748.787 643 728.72 596.179 689.07c-22.904-19.407-76.553-64.866-107.914-125.639-62.722-121.591-6.871-199.13 20.482-232.532-.969 1.101-1.894 2.201-2.819 3.301l-4.625 5.501c-7.268 9.989-16.385 23.587-22.904 34.149-.088.132-.132.264-.22.396h.044zm372.808 2.332c107.12 69.399 143.502 100.908 145.44 148.743.044-.924.133-1.892.177-2.816l.352-11.662-.264-11.31c-.044-1.32-.132-2.552-.176-3.873-4.097-50.167-71.047-91.533-155.66-143.769-59.507-36.746-126.986-78.42-120.643-107.553-27.881 29.441 67.611 91.314 130.818 132.284l-.044-.044z"/><defs><linearGradient id="a" x1="720" x2="720" y1="233.337" y2="787.337" gradientUnits="userSpaceOnUse"><stop stop-color="#10B981"/><stop offset=".315" stop-color="#3B82F6"/><stop offset="1" stop-color="#F97316"/></linearGradient></defs></svg>