<svg xmlns="http://www.w3.org/2000/svg" xmlns:xlink="http://www.w3.org/1999/xlink" viewBox="0 0 24 25"><g transform="translate(0 0.663)" id="ss4055175318_1"><path d="M 0 24 L 0 0 L 24 0 L 24 24 Z" fill="transparent"></path><path d="M 17 8 L 17 5 C 17 4.735 16.895 4.48 16.707 4.293 C 16.52 4.105 16.265 4 16 4 L 6 4 C 5.47 4 4.961 4.211 4.586 4.586 C 4.211 4.961 4 5.47 4 6 M 4 6 C 4 6.53 4.211 7.039 4.586 7.414 C 4.961 7.789 5.47 8 6 8 L 18 8 C 18.265 8 18.52 8.105 18.707 8.293 C 18.895 8.48 19 8.735 19 9 L 19 12 M 4 6 L 4 18 C 4 18.53 4.211 19.039 4.586 19.414 C 4.961 19.789 5.47 20 6 20 L 18 20 C 18.265 20 18.52 19.895 18.707 19.707 C 18.895 19.52 19 19.265 19 19 L 19 16" fill="transparent" stroke-width="1.5" stroke="rgb(148, 163, 184)" stroke-linecap="round" stroke-linejoin="round" stroke-dasharray=""></path><path d="M 20 12 L 20 16 L 16 16 C 15.47 16 14.961 15.789 14.586 15.414 C 14.211 15.039 14 14.53 14 14 C 14 13.47 14.211 12.961 14.586 12.586 C 14.961 12.211 15.47 12 16 12 Z" fill="transparent" stroke-width="1.5" stroke="rgb(148, 163, 184)" stroke-linecap="round" stroke-linejoin="round" stroke-dasharray=""></path></g></svg>