<svg width="22" height="22" fill="none" xmlns="http://www.w3.org/2000/svg" id="svg-473725036_528"><path fill-rule="evenodd" clip-rule="evenodd" d="M4 0a4 4 0 0 0-4 4v14a4 4 0 0 0 4 4h14a4 4 0 0 0 4-4V4a4 4 0 0 0-4-4H4Zm7.682 11A4.091 4.091 0 1 1 3.5 11a4.091 4.091 0 0 1 8.182 0Zm4.602 0c0 2.071-.84 3.75-1.875 3.75-1.035 0-1.875-1.679-1.875-3.75 0-2.071.84-3.75 1.875-3.75 1.036 0 1.875 1.679 1.875 3.75Zm1.534 3.41c.377 0 .682-1.527.682-3.41 0-1.883-.305-3.409-.682-3.409-.376 0-.682 1.526-.682 3.41 0 1.882.306 3.409.682 3.409Z" fill="#fff"></path></svg>