<svg width="24" height="25" viewBox="0 0 24 25" fill="none" xmlns="http://www.w3.org/2000/svg" id="svg207434564_1508">
<g clip-path="url(#svg207434564_1508_clip0_20_465)">
<path d="M5 7.66309C5 8.72395 5.42143 9.74137 6.17157 10.4915C6.92172 11.2417 7.93913 11.6631 9 11.6631C10.0609 11.6631 11.0783 11.2417 11.8284 10.4915C12.5786 9.74137 13 8.72395 13 7.66309C13 6.60222 12.5786 5.5848 11.8284 4.83466C11.0783 4.08451 10.0609 3.66309 9 3.66309C7.93913 3.66309 6.92172 4.08451 6.17157 4.83466C5.42143 5.5848 5 6.60222 5 7.66309Z" stroke="#C2410C" stroke-width="1.5" stroke-linecap="round" stroke-linejoin="round"/>
<path d="M3 21.6631V19.6631C3 18.6022 3.42143 17.5848 4.17157 16.8347C4.92172 16.0845 5.93913 15.6631 7 15.6631H11C12.0609 15.6631 13.0783 16.0845 13.8284 16.8347C14.5786 17.5848 15 18.6022 15 19.6631V21.6631" stroke="#C2410C" stroke-width="1.5" stroke-linecap="round" stroke-linejoin="round"/>
<path d="M16 3.79297C16.8604 4.01327 17.623 4.51367 18.1676 5.21528C18.7122 5.91689 19.0078 6.7798 19.0078 7.66797C19.0078 8.55614 18.7122 9.41905 18.1676 10.1207C17.623 10.8223 16.8604 11.3227 16 11.543" stroke="#C2410C" stroke-width="1.5" stroke-linecap="round" stroke-linejoin="round"/>
<path d="M21 21.663V19.663C20.9949 18.7801 20.6979 17.9238 20.1553 17.2274C19.6126 16.531 18.8548 16.0337 18 15.813" stroke="#C2410C" stroke-width="1.5" stroke-linecap="round" stroke-linejoin="round"/>
</g>
<defs>
<clipPath id="svg207434564_1508_clip0_20_465">
<rect width="24" height="24" fill="white" transform="translate(0 0.663086)"/>
</clipPath>
</defs>
</svg>