<svg xmlns="http://www.w3.org/2000/svg" xmlns:xlink="http://www.w3.org/1999/xlink" viewBox="0 0 24 24"><path d="M 1 12 C 1 5.925 5.925 1 12 1 C 18.075 1 23 5.925 23 12 C 23 18.075 18.075 23 12 23 C 5.925 23 1 18.075 1 12 Z M 4.644 11.44 C 4.547 11.478 4.483 11.571 4.482 11.675 C 4.482 11.777 4.549 11.873 4.644 11.909 L 7.631 12.999 L 13.785 9.822 C 13.852 9.791 13.932 9.812 13.975 9.872 C 14.015 9.934 14.006 10.016 13.953 10.067 L 9.811 13.782 L 14.452 17.519 C 14.519 17.567 14.609 17.579 14.686 17.551 C 14.764 17.521 14.822 17.455 14.842 17.374 L 17.3 7.036 C 17.321 6.946 17.291 6.852 17.222 6.79 C 17.152 6.73 17.055 6.712 16.968 6.744 Z" fill="rgb(148, 163, 184)"></path></svg>