<svg xmlns="http://www.w3.org/2000/svg" xmlns:xlink="http://www.w3.org/1999/xlink" viewBox="0 0 22 22"><path d="M 20.996 0.279 C 21.174 0.444 21.279 0.674 21.288 0.917 C 21.296 1.16 21.208 1.397 21.042 1.575 L 13.584 9.573 L 21.816 20.499 C 22.025 20.777 22.058 21.149 21.903 21.46 C 21.748 21.77 21.431 21.967 21.083 21.967 L 16.062 21.967 C 15.774 21.967 15.503 21.832 15.329 21.602 L 9.536 13.914 L 2.3 21.675 C 1.955 22.046 1.375 22.066 1.004 21.721 C 0.634 21.376 0.614 20.795 0.959 20.425 L 8.417 12.427 L 0.185 1.501 C -0.024 1.223 -0.057 0.851 0.097 0.541 C 0.252 0.23 0.569 0.033 0.917 0.033 L 5.939 0.033 C 6.227 0.033 6.497 0.168 6.671 0.398 L 12.464 8.086 L 19.699 0.324 C 19.865 0.146 20.095 0.042 20.338 0.033 C 20.581 0.024 20.817 0.113 20.995 0.279 Z M 11.692 10.109 C 11.666 10.079 11.642 10.048 11.621 10.015 L 5.482 1.865 L 2.755 1.865 L 16.518 20.135 L 19.245 20.135 Z" fill="rgb(148, 163, 184)"></path></svg>